#!OML:ASF I:\Actors\actors\Patient Classification 2\Patient 1\Session 1\actor1.ASF
:FULLY-SPECIFIED
:DEGREES
1005
root -0.787991 18.6132 6.06252 -2.06877 -2.05936 -3.82988
lowerback 0.533802 1.17546 1.37355
upperback -1.79825 1.61464 1.27568
thorax -2.14131 0.794666 0.499906
lowerneck -7.59378 -1.49793 -2.97008
upperneck 25.8335 -2.09526 1.98857
head 9.41779 -1.05301 0.980319
rclavicle -2.39163e-014 -1.32192e-014
rhumerus -21.3755 17.3219 -84.3261
rradius 95.6989
rwrist -33.8686
rhand 2.5743 -46.8143
rfingers 7.12502
rthumb 28.0537 -74.7368
lclavicle -2.39163e-014 -1.32192e-014
lhumerus -48.1398 2.53957 87.1082
lradius 43.9465
lwrist -5.19266
lhand -6.67027 -26.303
lfingers 7.12502
lthumb 19.1879 2.77044
rfemur 0 0 0
rtibia 0
rfoot 0 0
rtoes 0
lfemur -0.131143 -5.82379 -10.5207
ltibia 22.705
lfoot -24.4434 13.6677
ltoes -55.4385
1006
root -0.802924 18.6093 6.07057 -2.1681 -1.91448 -3.82724
lowerback 0.456923 1.04612 1.13858
upperback -1.699 1.43651 1.36868
thorax -2.00429 0.711197 0.733385
lowerneck -7.44051 -1.39125 -2.97426
upperneck 25.1214 -1.93306 1.96782
head 9.13296 -0.979913 0.988807
rclavicle 1.81391e-014 1.78906e-015
rhumerus -21.347 16.7844 -85.1025
rradius 94.7762
rwrist -32.9573
rhand 2.72718 -46.2685
rfingers 7.12502
rthumb 28.1998 -74.167
lclavicle 1.81391e-014 1.78906e-015
lhumerus -48.545 2.12318 87.4049
lradius 45.1785
lwrist -4.82877
lhand -6.36717 -25.4484
lfingers 7.12502
lthumb 19.4794 3.59588
rfemur 0 0 0
rtibia 0
rfoot 0 0
rtoes 0
lfemur 0.0660783 -5.98437 -10.4642
ltibia 22.6204
lfoot -24.5272 13.4758
ltoes -55.3796
1007
root -0.805857 18.6082 6.07227 -2.1628 -2.00313 -3.82098
lowerback 0.419576 0.983748 1.10286
upperback -1.66663 1.3521 1.4118
thorax -1.95151 0.670158 0.800422
lowerneck -7.22625 -1.27934 -2.90981
upperneck 24.3643 -1.76424 1.89091
head 8.82325 -0.90286 0.966736
rclavicle 1.46107e-014 -6.85807e-015
rhumerus -21.4247 16.3119 -85.8673
rradius 93.9137
rwrist -32.0389
rhand 2.77744 -45.861
rfingers 7.12502
rthumb 28.2479 -73.7516
lclavicle 1.46107e-014 -6.85807e-015
lhumerus -48.5228 2.25467 87.3914
lradius 44.9546
lwrist -5.06368
lhand -6.39611 -25.5596
lfingers 7.12502
lthumb 19.4515 3.48746
rfemur 0 0 0
rtibia 0
rfoot 0 0
rtoes 0
lfemur 0.158052 -6.13597 -10.5061
ltibia 22.5309
lfoot -24.5862 13.7104
ltoes -55.4708
1008
root -0.803536 18.6075 6.06916 -2.08162 -2.21661 -3.78189
lowerback 0.386215 0.96981 1.12731
upperback -1.66453 1.33326 1.42467
thorax -1.93026 0.66052 0.800954
lowerneck -6.8914 -1.19895 -2.84561
upperneck 23.4544 -1.63957 1.80066
head 8.44433 -0.847679 0.935863
rclavicle 1.10698e-014 -5.46658e-015
rhumerus -21.5559 15.8429 -86.6065
rradius 93.0735
rwrist -31.0118
rhand 2.62809 -45.6617
rfingers 7.12502
rthumb 28.1051 -73.5758
lclavicle 1.10698e-014 -5.46658e-015
lhumerus -48.5471 2.16907 87.4943
lradius 44.8655
lwrist -5.00576
lhand -6.44847 -25.5376
lfingers 7.12502
lthumb 19.4012 3.51451
rfemur 0 0 0
rtibia 0
rfoot 0 0
rtoes 0
lfemur 0.132919 -6.13056 -10.6145
ltibia 22.4447
lfoot -24.4378 14.2473
ltoes -55.8918
1009
root -0.800966 18.609 6.06494 -1.951 -2.42291 -3.73218
lowerback 0.31195 0.972181 1.15191
upperback -1.66245 1.33491 1.41612
thorax -1.88564 0.661007 0.779777
lowerneck -6.56921 -1.13074 -2.6741
upperneck 22.4759 -1.52822 1.61855
head 8.04892 -0.797487 0.854922
rclavicle 1.05604e-016 -1.0138e-014
rhumerus -21.6771 15.2986 -87.3223
rradius 92.2235
rwrist -29.9486
rhand 2.40409 -45.4137
rfingers 7.12502
rthumb 27.891 -73.3628
lclavicle 1.05604e-016 -1.0138e-014
lhumerus -48.5357 1.94474 87.6398
lradius 44.8246
lwrist -4.84033
lhand -6.48189 -25.4182
lfingers 7.12502
lthumb 19.3691 3.63711
rfemur 0 0 0
rtibia 0
rfoot 0 0
rtoes 0
lfemur 0.0581136 -6.24687 -10.7339
ltibia 22.3824
lfoot -24.4591 14.6692
ltoes -56.118
1010
root -0.797444 18.611 6.06415 -1.8308 -2.62082 -3.76366
lowerback 0.200741 0.976058 1.27444
upperback -1.64407 1.33867 1.41731
thorax -1.80161 0.661305 0.714591
lowerneck -6.41249 -1.04475 -2.5429
upperneck 21.6901 -1.41247 1.56318
head 7.75401 -0.735964 0.823418
rclavicle 1.08089e-015 -1.2921e-015
rhumerus -21.8339 14.6877 -88.033
rradius 91.394
rwrist -29.0467
rhand 2.01082 -45.2043
rfingers 7.12502
rthumb 27.5149 -73.2138
lclavicle 1.08089e-015 -1.2921e-015
lhumerus -48.4504 1.86298 87.6807
lradius 44.7292
lwrist -4.92493
lhand -6.48373 -25.3971
lfingers 7.12502
lthumb 19.3673 3.65842
rfemur 0 0 0
rtibia 0
rfoot 0 0
rtoes 0
lfemur 0.0221987 -6.49702 -10.7772
ltibia 22.337
lfoot -24.6884 14.9873
ltoes -55.9139
1011
root -0.794223 18.6125 6.0643 -1.72804 -2.83326 -3.84715
lowerback 0.107625 0.970338 1.43257
upperback -1.61812 1.33037 1.447
thorax -1.71987 0.655394 0.658652
lowerneck -6.37076 -0.945834 -2.6189
upperneck 21.0661 -1.30199 1.76815
head 7.53913 -0.669776 0.911496
rclavicle -3.35449e-016 8.15017e-015
rhumerus -22.013 14.128 -88.7072
rradius 90.4635
rwrist -28.1726
rhand 1.56771 -45.177
rfingers 7.12502
rthumb 27.0911 -73.2533
lclavicle -3.35449e-016 8.15017e-015
lhumerus -48.3905 1.87672 87.6875
lradius 44.682
lwrist -5.08395
lhand -6.53851 -25.4974
lfingers 7.12502
lthumb 19.3146 3.5634
rfemur 0 0 0
rtibia 0
rfoot 0 0
rtoes 0
lfemur -0.00167676 -6.65733 -10.7489
ltibia 22.3103
lfoot -24.8944 15.2426
ltoes -55.7323
1012
root -0.791728 18.6141 6.06136 -1.62972 -3.05917 -3.89839
lowerback 0.0888177 0.97035 1.5444
upperback -1.60923 1.33097 1.45966
thorax -1.69803 0.654267 0.609495
lowerneck -6.32939 -0.857356 -2.66536
upperneck 20.4065 -1.2002 1.93265
head 7.31374 -0.609207 0.979495
rclavicle -3.33586e-015 -6.70898e-015
rhumerus -22.2039 13.5454 -89.2988
rradius 89.4334
rwrist -26.5824
rhand 2.18143 -45.5907
rfingers 7.12502
rthumb 27.6781 -73.5742
lclavicle -3.33586e-015 -6.70898e-015
lhumerus -48.3739 1.84366 87.691
lradius 44.6528
lwrist -5.16619
lhand -6.72734 -25.6134
lfingers 7.12502
lthumb 19.133 3.46547
rfemur 0 0 0
rtibia 0
rfoot 0 0
rtoes 0
lfemur -0.0433098 -6.71977 -10.7365
ltibia 22.2993
lfoot -25.0485 15.4767
ltoes -55.667
1013
root -0.788937 18.6159 6.05745 -1.52682 -3.19413 -3.91249
lowerback 0.0953597 0.964311 1.62128
upperback -1.61996 1.32386 1.44496
thorax -1.71069 0.649376 0.551321
lowerneck -6.25412 -0.802862 -2.52681
upperneck 19.6961 -1.12121 1.84713
head 7.06585 -0.567607 0.932639
rclavicle 3.63403e-015 5.96354e-015
rhumerus -22.4703 12.8949 -89.7745
rradius 88.4373
rwrist -24.1156
rhand 3.50522 -45.9877
rfingers 7.12502
rthumb 28.9432 -73.7612
lclavicle 3.63403e-015 5.96354e-015
lhumerus -48.2887 1.93211 87.611
lradius 44.5468
lwrist -5.32173
lhand -6.72111 -25.6386
lfingers 7.12502
lthumb 19.139 3.43967
rfemur 0 0 0
rtibia 0
rfoot 0 0
rtoes 0
lfemur -0.121009 -6.7772 -10.7466
ltibia 22.2848
lfoot -25.152 15.6605
ltoes -55.6327
1014
root -0.786235 18.6181 6.05379 -1.42087 -3.32802 -3.90199
lowerback 0.0912846 0.976401 1.67666
upperback -1.63266 1.34039 1.42454
thorax -1.71968 0.656568 0.499129
lowerneck -6.14208 -0.773298 -2.43837
upperneck 18.987 -1.07988 1.8083
head 6.81525 -0.544084 0.906675
rclavicle -2.23633e-015 1.49089e-015
rhumerus -22.8565 12.3738 -90.1787
rradius 87.4694
rwrist -21.7909
rhand 3.76408 -45.5848
rfingers 7.12502
rthumb 29.1904 -73.3157
lclavicle -2.23633e-015 1.49089e-015
lhumerus -48.1499 2.05565 87.5239
lradius 44.4958
lwrist -5.41139
lhand -6.36578 -25.5187
lfingers 7.12502
lthumb 19.4807 3.52545
rfemur 0 0 0
rtibia 0
rfoot 0 0
rtoes 0
lfemur -0.189918 -6.90035 -10.7989
ltibia 22.2528
lfoot -25.2778 15.8749
ltoes -55.5366
1015
root -0.784677 18.6202 6.04816 -1.34489 -3.51036 -3.86982
lowerback 0.145906 0.995507 1.69628
upperback -1.64377 1.36738 1.39499
thorax -1.76049 0.66925 0.456324
lowerneck -5.96161 -0.71891 -2.46293
upperneck 18.2235 -1.01913 1.92707
head 6.53778 -0.506688 0.95167
rclavicle -6.63444e-015 -1.82882e-014
rhumerus -23.3902 12.0733 -90.5613
rradius 86.5693
rwrist -20.3562
rhand 3.33479 -44.8357
rfingers 7.12502
rthumb 28.7804 -72.637
lclavicle -6.63444e-015 -1.82882e-014
lhumerus -47.9996 2.17661 87.4185
lradius 44.4073
lwrist -5.50781
lhand -6.18634 -25.4894
lfingers 7.12502
lthumb 19.6532 3.53716
rfemur 0 0 0
rtibia 0
rfoot 0 0
rtoes 0
lfemur -0.208052 -7.00185 -10.8812
ltibia 22.2045
lfoot -25.4331 16.0743
ltoes -55.4085
1016
root -0.782884 18.6226 6.04359 -1.26044 -3.61001 -3.81519
lowerback 0.179809 0.967888 1.65377
upperback -1.65976 1.33104 1.37435
thorax -1.79653 0.651299 0.458757
lowerneck -5.85079 -0.665489 -2.46461
upperneck 17.5594 -0.948706 1.97356
head 6.30545 -0.468875 0.970089
rclavicle 1.76421e-015 -1.31198e-014
rhumerus -24.0014 11.8998 -90.9034
rradius 85.7091
rwrist -19.9244
rhand 2.92702 -44.1421
rfingers 7.12502
rthumb 28.3908 -72.0089
lclavicle 1.76421e-015 -1.31198e-014
lhumerus -47.9017 2.33591 87.321
lradius 44.3201
lwrist -5.59144
lhand -6.30728 -25.5707
lfingers 7.12502
lthumb 19.5369 3.46775
rfemur 0 0 0
rtibia 0
rfoot 0 0
rtoes 0
lfemur -0.248675 -7.12394 -10.9733
ltibia 22.1497
lfoot -25.5646 16.1779
ltoes -55.2353
1017
root -0.779149 18.6249 6.04274 -1.14872 -3.67322 -3.74677
lowerback 0.126306 0.940194 1.59519
upperback -1.67287 1.29213 1.36553
thorax -1.78111 0.632718 0.48397
lowerneck -5.94751 -0.647321 -2.46186
upperneck 17.1639 -0.918904 1.98201
head 6.19631 -0.452668 0.972994
rclavicle -1.00324e-014 6.41081e-015
rhumerus -24.5997 11.6811 -91.174
rradius 84.7992
rwrist -20.0081
rhand 2.55937 -43.3476
rfingers 7.12502
rthumb 28.0394 -71.2725
lclavicle -1.00324e-014 6.41081e-015
lhumerus -47.8356 2.37996 87.3269
lradius 44.3545
lwrist -5.51199
lhand -6.35804 -25.595
lfingers 7.12502
lthumb 19.4881 3.44836
rfemur 0 0 0
rtibia 0
rfoot 0 0
rtoes 0
lfemur -0.313401 -7.38793 -11.1066
ltibia 22.1034
lfoot -25.7244 16.3609
ltoes -55.0626
1018
root -0.774708 18.6275 6.04117 -0.998249 -3.68685 -3.69014
lowerback 0.021547 0.915896 1.5763
upperback -1.68261 1.2566 1.34357
thorax -1.73225 0.615306 0.474354
lowerneck -6.07127 -0.622386 -2.44851
upperneck 16.7669 -0.882504 2.00356
head 6.09156 -0.431397 0.978703
rclavicle -1.51511e-014 7.20594e-015
rhumerus -25.1965 11.3518 -91.4077
rradius 83.8548
rwrist -19.7056
rhand -1.44388 -36.0718
rfingers 7.12502
rthumb 24.2067 -64.564
lclavicle -1.51511e-014 7.20594e-015
lhumerus -47.7241 2.4742 87.2862
lradius 44.4473
lwrist -5.5728
lhand -6.25032 -25.5054
lfingers 7.12502
lthumb 19.5917 3.52739
rfemur 0 0 0
rtibia 0
rfoot 0 0
rtoes 0
lfemur -0.450111 -7.56091 -11.2029
ltibia 22.0704
lfoot -25.8013 16.5036
ltoes -55.0138
1019
root -0.771266 18.63 6.03947 -0.866076 -3.71132 -3.67849
lowerback -0.0900959 0.90095 1.60729
upperback -1.67581 1.23352 1.32253
thorax -1.66153 0.603542 0.437777
lowerneck -6.10885 -0.606537 -2.45705
upperneck 16.2858 -0.862273 2.05979
head 5.9462 -0.417158 0.997748
rclavicle -7.442e-015 1.45113e-014
rhumerus -25.8227 10.9542 -91.6038
rradius 82.8218
rwrist -18.741
rhand 3.20462 -41.9147
rfingers 7.12502
rthumb 28.6561 -69.7371
lclavicle -7.442e-015 1.45113e-014
lhumerus -47.5864 2.67115 87.1727
lradius 44.5476
lwrist -5.80437
lhand -6.12592 -25.335
lfingers 7.12502
lthumb 19.7113 3.68557
rfemur 0 0 0
rtibia 0
rfoot 0 0
rtoes 0
lfemur -0.578094 -7.59254 -11.229
ltibia 22.0516
lfoot -25.8216 16.5937
ltoes -55.0555
1020
root -0.767952 18.6302 6.03999 -0.822676 -3.78333 -3.67767
lowerback -0.148804 0.90655 1.65131
upperback -1.6564 1.23905 1.30151
thorax -1.60726 0.605853 0.392736
lowerneck -6.10047 -0.620932 -2.44342
upperneck 15.8494 -0.881264 2.07778
head 5.80819 -0.423902 0.998531
rclavicle -5.14355e-015 6.70898e-015
rhumerus -26.5528 10.5806 -91.7289
rradius 81.7329
rwrist -17.5928
rhand -0.122962 -37.4038
rfingers 7.12502
rthumb 25.4726 -65.7215
lclavicle -5.14355e-015 6.70898e-015
lhumerus -47.3555 2.77042 87.1123
lradius 44.4417
lwrist -5.96031
lhand -6.14359 -25.2846
lfingers 7.12502
lthumb 19.6943 3.73773
rfemur 0 0 0
rtibia 0
rfoot 0 0
rtoes 0
lfemur -0.59344 -7.74833 -11.286
ltibia 22.0473
lfoot -25.9593 16.7816
ltoes -55.0266
